<svg width="33" height="32" viewBox="0 0 33 32" fill="none" xmlns="http://www.w3.org/2000/svg">
<path d="M11.2351 23.7713L12.1065 24.2371C13.4568 24.959 14.9648 25.3356 16.496 25.3333L16.5 25.3333C21.6548 25.3333 25.8333 21.1548 25.8333 16C25.8333 10.8452 21.6548 6.66667 16.5 6.66667C11.3452 6.66667 7.16668 10.8452 7.16668 16V16.004C7.16437 17.5352 7.54097 19.0432 8.26289 20.3935L8.72873 21.2649L8.01244 24.4876L11.2351 23.7713ZM4.50001 28L5.91121 21.6508C4.98185 19.9125 4.49705 17.9712 4.50001 16C4.50001 9.3724 9.87241 4 16.5 4C23.1276 4 28.5 9.3724 28.5 16C28.5 22.6276 23.1276 28 16.5 28C14.5288 28.003 12.5875 27.5181 10.8492 26.5888L4.50001 28Z" fill="#0F1828"/>
</svg>
