<svg width="100" height="101" viewBox="0 0 100 101" fill="none" xmlns="http://www.w3.org/2000/svg">
<rect width="100" height="100" rx="50" fill="#152033"/>
<path d="M38.3333 40.6667C38.3333 34.2233 43.5566 29 49.9999 29C56.4432 29 61.6666 34.2233 61.6666 40.6667C61.6666 47.11 56.4432 52.3333 49.9999 52.3333C43.5566 52.3333 38.3333 47.11 38.3333 40.6667ZM49.9999 47.6667C53.8659 47.6667 56.9999 44.5327 56.9999 40.6667C56.9999 36.8007 53.8659 33.6667 49.9999 33.6667C46.1339 33.6667 42.9999 36.8007 42.9999 40.6667C42.9999 44.5327 46.1339 47.6667 49.9999 47.6667Z" fill="#F7F7FC"/>
<path d="M36.8006 60.134C33.2999 63.6347 31.3333 68.3826 31.3333 73.3333H35.9999C35.9999 69.6203 37.4749 66.0593 40.1004 63.4338C42.7259 60.8083 46.2869 59.3333 49.9999 59.3333C53.7129 59.3333 57.2739 60.8083 59.8994 63.4338C62.5249 66.0593 63.9999 69.6203 63.9999 73.3333H68.6666C68.6666 68.3826 66.6999 63.6347 63.1992 60.134C59.6986 56.6333 54.9506 54.6667 49.9999 54.6667C45.0492 54.6667 40.3013 56.6333 36.8006 60.134Z" fill="#F7F7FC"/>
<path d="M85 99C79.4797 98.994 75.0061 94.5204 75 89V88.8C75.1099 83.3045 79.6346 78.928 85.1307 79.0009C90.6268 79.0738 95.0337 83.5689 94.9978 89.0654C94.9619 94.5618 90.4966 98.9989 85 99ZM80 88V90H84V94H86V90H90V88H86V84H84V88H80Z" fill="#F7F7FC"/>
</svg>
